inDegrees=no
num_controls=7
num_derivatives=13
num_iterations=222
num_multipliers=7
num_parameters=0
num_slacks=7
num_states=26
objective=6.319534
objective_accelerations=0.659818
objective_balance=0.020960
objective_effort=0.534723
objective_height=5.036460
objective_ligament=0.067574
solver_duration=1894.456477
status=Solve_Succeeded
success=true
DataType=double
version=3
OpenSimVersion=4.4-2022-07-23-0e9fedc
endheader
time	/jointset/ground_pelvis/pelvis_tilt/value	/jointset/ground_pelvis/pelvis_tx/value	/jointset/ground_pelvis/pelvis_ty/value	/jointset/hip_r/hip_flexion_r/value	/jointset/hip_r/hip_adduction_r/value	/jointset/hip_r/hip_rotation_r/value	/jointset/back/lumbar_extension/value	/jointset/patellofemoral_r/patellar_flexion_r/value	/jointset/knee_r/knee_flexion_r/value	/jointset/knee_r/knee_adduction_r/value	/jointset/knee_r/knee_rotation_r/value	/jointset/ankle_r/ankle_angle_r/value	/jointset/subtalar_r/subtalar_angle_r/value	/jointset/ground_pelvis/pelvis_tilt/speed	/jointset/ground_pelvis/pelvis_tx/speed	/jointset/ground_pelvis/pelvis_ty/speed	/jointset/hip_r/hip_flexion_r/speed	/jointset/hip_r/hip_adduction_r/speed	/jointset/hip_r/hip_rotation_r/speed	/jointset/back/lumbar_extension/speed	/jointset/patellofemoral_r/patellar_flexion_r/speed	/jointset/knee_r/knee_flexion_r/speed	/jointset/knee_r/knee_adduction_r/speed	/jointset/knee_r/knee_rotation_r/speed	/jointset/ankle_r/ankle_angle_r/speed	/jointset/subtalar_r/subtalar_angle_r/speed	/forceset/tau_hip_flexion_r	/forceset/tau_hip_adduction_r	/forceset/tau_hip_rotation_r	/forceset/tau_knee_flexion_r	/forceset/tau_ankle_angle_r	/forceset/tau_subtalar_angle_r	/forceset/tau_lumbar_extension	lambda_cid13_p0	lambda_cid14_p0	lambda_cid14_p1	lambda_cid14_p2	lambda_cid14_p3	lambda_cid14_p4	lambda_cid14_p5	/jointset/ground_pelvis/pelvis_tilt/accel	/jointset/ground_pelvis/pelvis_tx/accel	/jointset/ground_pelvis/pelvis_ty/accel	/jointset/hip_r/hip_flexion_r/accel	/jointset/hip_r/hip_adduction_r/accel	/jointset/hip_r/hip_rotation_r/accel	/jointset/back/lumbar_extension/accel	/jointset/patellofemoral_r/patellar_flexion_r/accel	/jointset/knee_r/knee_flexion_r/accel	/jointset/knee_r/knee_adduction_r/accel	/jointset/knee_r/knee_rotation_r/accel	/jointset/ankle_r/ankle_angle_r/accel	/jointset/subtalar_r/subtalar_angle_r/accel	gamma_cid13_p0	gamma_cid14_p0	gamma_cid14_p1	gamma_cid14_p2	gamma_cid14_p3	gamma_cid14_p4	gamma_cid14_p5
1	-0.3069932379776215	-0.0165588091761926	0.6459025182823446	1.512691336744458	-0.2296303688648392	-0.08507804684408329	-0.4363311494200811	1.421966644677065	1.421966644677047	-0.1241733629048877	0.1732902297062667	0.4221597588706373	0.1098898866591835	-0.00124008455564648	0.003142022663635607	0.01427213675154679	-0.03704338395570277	0.002966845247546607	-0.01478690395944475	-3.814238876132633e-05	-0.04305247695991278	-0.0430524769599067	-0.007375905302304176	-0.0007176037555837456	-0.004787273296241273	0.003405070493451752	-0.290033242314347	0.002596479253023056	0.008121151210466269	-0.5173287781053238	0.02193127250796972	0.0133556554296872	0.3052382130930735	-0.04446961386547821	-42.54741174943103	-2.012936648073995	1.196151773208955	20.30500992371255	-810.8473167272477	72.39891640521073	1.173221545581179	0.0001458412200834967	1.918800201022772	-5.613671130770399	0.1660497697701718	-0.2489862214432122	-0.0121951357924352	-5.644204594316228	-5.644204594316379	1.084010813689147	0.06061346889999107	-1.406591942933511	-0.2720944949651887	4.87725222470886e-09	8.193379646780377e-09	2.469795874935191e-08	3.310194896201378e-08	-3.030378829396714e-09	-6.397604485663074e-09	4.931641840886217e-08
1.01	-0.3069474228681816	-0.01652736769510994	0.6461410214664656	1.512040952913488	-0.2295924198561683	-0.08523607516341715	-0.4363315665442078	1.42125431510731	1.42125431510734	-0.1241907177780572	0.1732855562573003	0.4220415507136459	0.1099102387592911	0.01041317063432431	0.00314948204138085	0.03342418268539838	-0.09303506039122166	0.004622890528140946	-0.01681773150995195	-5.175213417567225e-05	-0.09940837541457929	-0.09940837541459073	0.003905048573845052	-0.000218145693635153	-0.01885795266874151	0.000663701686206633	-0.2898810734051443	0.002590867382275314	0.008158206111505389	-0.5170232318830607	0.02200664550048511	0.01335319780103662	0.3051244715304248	-0.04447941652683832	-42.50541058214526	-2.005921967301839	1.194202183576793	20.23042609572667	-810.5931651684419	72.38092832611525	1.162890139014691	0.001525309622511524	1.912756952241194	-5.59216475713434	0.165382897741171	-0.1799712150096937	0.00308564568610879	-5.630525013896041	-5.630525013898649	1.150155526876813	0.04447286657634363	-1.407844972405122	-0.2753875166897009	8.856676327169438e-09	1.652870269961607e-08	5.654424976167866e-08	7.549064348037168e-08	-9.680966912641457e-09	-1.109860760209415e-08	1.096157935704323e-07
1.02	-0.3067847726801803	-0.01649575575553566	0.6465709151424599	1.510830602546736	-0.2295379101965823	-0.08541437979688862	-0.4363323129985824	1.419978578044437	1.419978578044503	-0.1240952595419977	0.1732858495673	0.42178252795533	0.1099031312827093	0.02212693115668553	0.003176114361959893	0.05255023512623967	-0.1490366911144064	0.006278975430218934	-0.01884216678666576	-0.0001041802954980348	-0.1557339755834141	-0.1557339755834459	0.01518671654195247	0.0002757480376745899	-0.03295019356111691	-0.002086844844458968	-0.2897289044958818	0.002585255511532772	0.008195261012462381	-0.516717685660801	0.02208201849299388	0.01335074017239385	0.3050107299678344	-0.04450059191449738	-42.47348646578313	-1.997058886998138	1.187830776922435	20.18944345524937	-810.4853638731428	72.39121474066079	1.185322612059302	0.003980429786817576	1.913601502420703	-5.615661988303549	0.1660576940669072	-0.2477077666845315	-0.01995881897288437	-5.638144937149878	-5.6381449371506	1.084153632080779	0.05950060277221782	-1.410904246908583	-0.2739300396492942	1.249115010963533e-08	2.230715812898991e-08	8.655268682597214e-08	1.154879346366602e-07	-1.153013092911803e-08	-1.586441629370421e-08	1.643265497855598e-07
1.03	-0.3065051645334465	-0.01646358061053402	0.6471918620737498	1.509060535144897	-0.2294668873883651	-0.08561298134591852	-0.4363321023247091	1.41813983582633	1.418139835826385	-0.1238870352569759	0.1732910702493675	0.4213827090620382	0.1098684926555249	0.03375594947345956	0.00328232496812492	0.07162709559586869	-0.2049432157293735	0.007920206021560331	-0.02088008171146004	0.000308738199144613	-0.2119994135073666	-0.2119994135073649	0.02645915440747233	0.0007688881401152598	-0.04699389736183068	-0.004841549591243628	-0.2903465631179223	0.002613216556370071	0.008277909433685214	-0.5159029616180724	0.0219624867074709	0.01335863956860091	0.3057487889013979	-0.04451425201656632	-42.50518483615681	-1.990879783326585	1.177366927464268	19.91996339959316	-810.628430128158	72.34447385736341	1.145885005776979	0.01745024845443555	1.902915833770491	-5.573106097678433	0.1623717132611698	-0.182113265787878	0.09625488038715202	-5.618488286837026	-5.618488286831544	1.148941899448502	0.04433644232769144	-1.398151147080592	-0.2763042845648224	1.612210399087679e-08	2.805952307241005e-08	1.16542370278551e-07	1.554608237178256e-07	-1.333030082246428e-08	-2.063088626669365e-08	2.189802792767441e-07
1.04	-0.306110427490688	-0.01642964158498612	0.6480032151126431	1.506732410816985	-0.229379609079916	-0.0858320180262787	-0.4363228940672392	1.41573889021562	1.415738890215666	-0.1235660559861614	0.1733012454781291	0.4208430435906536	0.1098062942623984	0.04515271036185433	0.00352889047121236	0.09063145664694279	-0.2606480763277487	0.009530075476637017	-0.02292919305269216	0.001695164561947864	-0.2681746541040841	-0.2681746541040452	0.0377377136994267	0.001266657376462949	-0.06091950917965841	-0.007598798032898344	-0.2909642217400017	0.002641177601210096	0.008360557854826128	-0.5150882375753499	0.02184295492195384	0.01336653896481655	0.3064868478349238	-0.04453942279395177	-42.54703310539534	-1.982874759492931	1.162495957166884	19.68318887593881	-810.919805009454	72.32582911283039	1.13887112638349	0.03205140917127509	1.899101618709714	-5.575329184985172	0.1597854668139704	-0.2499470499721017	0.1747427546582713	-5.620105471702885	-5.620105471702855	1.085377917367676	0.06042642955361857	-1.387285850331414	-0.2744387786233146	1.927878111577953e-08	3.474438253671687e-08	1.43721396932904e-07	1.908539049363718e-07	-1.866170405118577e-08	-2.47000739391848e-08	2.677741704258859e-07
